# xmcd
#
# Track frame offsets:
# 150
# 11484
# 22801
# 32476
# 44407
# 59294
# 78369
# 91005
# 101621
# 116338
# 136267
# 146613
# 158661
#
# Disc length: 2303 seconds
#
#
# Revision: 0
# Processed by: cddbd v1.5.1PL2 Copyright (c) Steve Scherf et al.
# Submitted via: FreeRIP 2.944 
#
DISCID=9108fd0d
DTITLE=The Howlin' Acoustic Bluesy - Country Blues and other Stories
DYEAR=2000
DGENRE=
TTITLE0=Railway and Gun
TTITLE1=Call Me Mother
TTITLE2=Going To Chicago
TTITLE3=Cocaine Blues
TTITLE4=Alberta (traditional)
TTITLE5=The Woman on the River
TTITLE6=Who Been Fooling You
TTITLE7=John the Reveletor
TTITLE8=Walkin' BLues
TTITLE9=Can't Find My Way Home
TTITLE10=Rollin' and Tumblin'
TTITLE11=Hey HEy
TTITLE12=The Snake
EXTD=
EXTT0=
EXTT1=
EXTT2=
EXTT3=
EXTT4=
EXTT5=
EXTT6=
EXTT7=
EXTT8=
EXTT9=
EXTT10=
EXTT11=
EXTT12=
PLAYORDER=
